<?xml version="1.0" standalone="no"?>
<!DOCTYPE svg PUBLIC "-//W3C//DTD SVG 20010904//EN"
 "http://www.w3.org/TR/2001/REC-SVG-20010904/DTD/svg10.dtd">
<svg version="1.0" xmlns="http://www.w3.org/2000/svg"
 width="109.000000pt" height="100.000000pt" viewBox="0 0 109.000000 100.000000"
 preserveAspectRatio="xMidYMid meet">

<g transform="translate(0.000000,100.000000) scale(0.100000,-0.100000)"
fill="#000000" stroke="none">
<path d="M480 850 c0 -32 -14 -40 -24 -15 -3 8 -17 15 -31 15 -29 0 -33 -15
-7 -24 35 -13 68 -36 51 -36 -9 0 -22 -7 -29 -15 -7 -8 -16 -13 -20 -10 -10 6
-80 -14 -80 -24 0 -12 54 -21 58 -10 6 15 22 10 22 -6 0 -8 5 -15 10 -15 6 0
10 9 10 20 0 10 9 24 20 30 21 11 44 5 35 -10 -10 -17 15 -21 32 -5 10 10 24
14 39 11 16 -4 23 -1 26 10 3 14 6 13 22 -5 19 -21 19 -21 -2 -21 -13 0 -22
-6 -22 -16 0 -8 5 -12 10 -9 6 3 10 -1 10 -9 0 -9 5 -16 10 -16 6 0 10 8 10
18 0 23 37 47 54 33 9 -7 17 -4 30 11 21 24 12 51 -20 56 -10 2 -29 13 -41 24
-12 11 -27 17 -33 13 -16 -10 37 -54 65 -55 16 -1 13 -4 -10 -14 -27 -11 -31
-10 -60 19 -52 54 -127 77 -79 24 18 -20 18 -21 0 -35 -27 -19 -39 -7 -33 33
3 19 3 41 0 49 -9 24 -23 15 -23 -16z"/>
<path d="M248 824 c-25 -13 -38 -34 -23 -34 14 0 65 32 65 40 0 13 -10 12 -42
-6z"/>
<path d="M289 811 c-31 -25 -18 -38 16 -15 l26 17 -7 -26 c-6 -27 9 -39 19
-14 3 9 20 13 46 11 41 -2 56 12 24 22 -10 3 -26 10 -35 15 -28 15 -64 11 -89
-10z"/>
<path d="M760 761 c0 -11 26 -22 34 -14 3 3 3 10 0 14 -7 12 -34 11 -34 0z"/>
<path d="M191 742 c-24 -21 -35 -58 -21 -67 5 -3 14 5 19 18 6 14 15 28 21 32
9 6 9 2 0 -15 -8 -16 -9 -25 -1 -33 7 -7 12 -5 17 9 8 22 34 54 44 54 4 0 5
-13 2 -30 -3 -18 0 -30 7 -30 6 0 11 7 11 15 0 9 6 12 15 9 20 -8 19 13 -2 35
-23 24 -86 25 -112 3z"/>
<path d="M535 730 c-4 -6 5 -10 19 -10 14 0 26 5 26 10 0 6 -9 10 -19 10 -11
0 -23 -4 -26 -10z"/>
<path d="M766 732 c-7 -12 22 -38 31 -28 4 3 0 14 -9 22 -9 10 -18 12 -22 6z"/>
<path d="M710 722 c0 -6 3 -12 8 -15 4 -2 2 -2 -5 -1 -7 2 -15 -1 -19 -7 -4
-7 -10 -6 -18 0 -22 19 -26 -1 -6 -27 11 -13 20 -29 20 -35 0 -5 -9 2 -21 17
-20 25 -69 37 -69 16 0 -5 6 -10 13 -10 23 0 60 -47 53 -66 -4 -11 1 -24 15
-37 16 -15 18 -22 10 -25 -8 -3 -16 0 -20 5 -8 14 -78 26 -85 15 -6 -10 43
-36 52 -28 2 3 13 -5 24 -17 13 -15 21 -18 24 -9 3 6 12 12 20 12 15 0 20 45
5 54 -5 3 -11 17 -13 31 -6 30 18 35 27 5 16 -49 36 9 32 90 -2 28 -7 36 -24
38 -13 2 -23 -1 -23 -6z m24 -65 c15 -24 -2 -34 -19 -11 -8 10 -15 23 -15 27
0 13 22 3 34 -16z"/>
<path d="M480 705 c0 -16 -6 -17 -89 -19 -46 -1 -56 -5 -75 -29 -16 -22 -18
-30 -7 -36 9 -6 10 -11 2 -15 -15 -10 -14 -26 2 -26 7 0 18 10 26 21 10 18 10
23 0 30 -10 6 -10 10 0 23 18 22 31 20 31 -4 0 -11 5 -20 10 -20 6 0 10 9 10
20 0 24 8 25 32 3 17 -15 19 -15 38 2 19 17 20 17 35 -19 13 -30 19 -35 30
-26 19 16 63 22 70 9 4 -5 -1 -17 -11 -25 -18 -14 -18 -14 6 -12 37 4 41 53 6
69 -19 9 -23 15 -15 25 7 8 7 14 -1 19 -14 9 -27 -3 -32 -29 -5 -28 -25 -31
-38 -6 -8 15 -8 25 -1 34 12 14 5 26 -16 26 -7 0 -13 -7 -13 -15z"/>
<path d="M227 663 c-4 -3 -7 -20 -7 -37 0 -23 -3 -27 -10 -16 -5 8 -12 11 -15
8 -10 -10 10 -64 21 -58 5 3 8 8 6 13 -1 4 2 7 7 7 6 0 11 15 13 33 2 26 7 32
26 30 14 -2 22 3 22 12 0 15 -50 22 -63 8z"/>
<path d="M777 643 c-2 -4 0 -19 6 -33 l10 -25 5 24 c4 24 -12 50 -21 34z"/>
<path d="M438 633 c-46 -7 -34 -29 12 -25 24 3 39 9 37 15 -4 13 -14 15 -49
10z"/>
<path d="M770 561 c0 -11 -12 -33 -26 -50 -31 -37 -10 -44 24 -8 22 24 30 77
12 77 -5 0 -10 -9 -10 -19z"/>
<path d="M329 543 c-14 -39 -16 -65 -3 -70 7 -2 14 9 17 24 3 15 8 38 12 51
11 32 -13 28 -26 -5z"/>
<path d="M254 548 c-14 -22 -17 -216 -4 -263 26 -94 130 -166 196 -136 77 35
149 128 198 259 16 40 27 75 25 76 -2 2 -21 6 -41 10 -43 8 -54 -10 -13 -20
31 -8 29 -15 -25 -129 -27 -57 -54 -95 -90 -129 -50 -47 -53 -48 -103 -43 -44
4 -56 10 -83 41 -50 58 -64 148 -45 284 7 51 0 75 -15 50z"/>
<path d="M479 493 c-16 -59 -16 -63 -4 -64 11 -1 46 97 37 105 -13 13 -20 4
-33 -41z"/>
<path d="M766 341 c-23 -25 -13 -45 15 -31 13 7 19 7 19 1 0 -22 -35 -98 -62
-135 -15 -22 -28 -44 -28 -48 0 -20 21 -3 61 49 l43 58 11 -40 c22 -85 45 -83
45 5 0 56 -1 59 -29 65 -27 6 -29 9 -21 34 6 22 4 32 -11 45 -24 20 -22 20
-43 -3z m81 -123 c-3 -8 -6 -5 -6 6 -1 11 2 17 5 13 3 -3 4 -12 1 -19z"/>
<path d="M870 310 c0 -5 5 -10 10 -10 6 0 10 5 10 10 0 6 -4 10 -10 10 -5 0
-10 -4 -10 -10z"/>
<path d="M355 299 c-7 -10 35 -22 64 -17 12 2 20 7 19 13 -4 12 -76 16 -83 4z"/>
</g>
</svg>
